PathFileType	4	(X/Y/Z)	E:/New_biomech_experiments/MICROGRAVITY MOCAP/Session 2024-06-22/Neeraj_FullAction_pp_22_06_24_t02 (1).trc	
DataRate	CameraRate	NumFrames	NumMarkers	Units	OrigDataRate	OrigDataStartFrame	OrigNumFrames	
120.00	120.00	22	19	m	120.00	6632	7579	
Frame#	Time	RSHO			MarkerSet_RBAK			MarkerSet_LBHD			MarkerSet_RUPA			MarkerSet_PRSHO			MarkerSet_RELB			MarkerSet_CLAV			MarkerSet_RFHD			MarkerSet_LFHD			MarkerSet_C7			MarkerSet_RWRB			MarkerSet_RFRM			MarkerSet_RWRA			MarkerSet_MRELB			MarkerSet_DIA			MarkerSet_STRN			MarkerSet_ARSHO			MarkerSet_RBHD			MarkerSet_T10			
		X1	Y1	Z1	X2	Y2	Z2	X3	Y3	Z3	X4	Y4	Z4	X5	Y5	Z5	X6	Y6	Z6	X7	Y7	Z7	X8	Y8	Z8	X9	Y9	Z9	X10	Y10	Z10	X11	Y11	Z11	X12	Y12	Z12	X13	Y13	Z13	X14	Y14	Z14	X15	Y15	Z15	X16	Y16	Z16	X17	Y17	Z17	X18	Y18	Z18	X19	Y19	Z19	

6632	55.258	-0.06690	1.57488	0.07636	-0.11609	1.36662	0.00432	-0.03849	1.71838	-0.12678	-0.04099	1.56328	0.25564	-0.11903	1.47814	0.06920	-0.04171	1.57703	0.39103	0.09600	1.49327	-0.07305	0.05210	1.80787	0.02791	0.07511	1.82564	-0.07179	-0.10399	1.52420	-0.08474	-0.04464	1.57734	0.68559	-0.02373	1.59606	0.52615	0.05465	1.57906	0.67360	0.03511	1.48647	0.40219	0.07944	1.18365	0.10948	0.13670	1.33206	-0.05061	0.04987	1.52585	0.07530	-0.07051	1.71612	-0.02621	-0.10940	1.33144	-0.06266 
6633	55.267	-0.06693	1.57487	0.07631	-0.11629	1.36734	0.00469	-0.03867	1.71848	-0.12706	-0.04040	1.56235	0.25528	-0.11902	1.47814	0.06918	-0.04183	1.57673	0.39092	0.09604	1.49326	-0.07305	0.05207	1.80778	0.02781	0.07520	1.82565	-0.07174	-0.10400	1.52424	-0.08477	-0.04463	1.57695	0.68560	-0.02382	1.59614	0.52648	0.05461	1.57875	0.67362	0.03512	1.48632	0.40212	0.07945	1.18365	0.10944	0.13674	1.33207	-0.05064	0.04989	1.52581	0.07527	-0.06952	1.71475	-0.02661	-0.10934	1.33143	-0.06270 
6634	55.275	-0.06686	1.57485	0.07633	-0.11604	1.36661	0.00421	-0.03859	1.71850	-0.12708	-0.04041	1.56228	0.25530	-0.11899	1.47810	0.06911	-0.04183	1.57654	0.39097	0.09609	1.49326	-0.07306	0.05227	1.80787	0.02792	0.07540	1.82532	-0.07194	-0.10398	1.52426	-0.08483	-0.04466	1.57659	0.68561	-0.02376	1.59586	0.52647	0.05465	1.57842	0.67364	0.04049	1.48766	0.40191	0.07947	1.18363	0.10940	0.13675	1.33204	-0.05067	0.04989	1.52577	0.07527	-0.07038	1.71611	-0.02622	-0.10928	1.33142	-0.06276 
6635	55.283	-0.06687	1.57485	0.07629	-0.11604	1.36661	0.00413	-0.03827	1.71842	-0.12679	-0.04037	1.56216	0.25527	-0.11897	1.47809	0.06909	-0.04183	1.57633	0.39100	0.09611	1.49324	-0.07310	0.05237	1.80783	0.02792	0.07552	1.82530	-0.07194	-0.10393	1.52425	-0.08484	-0.04467	1.57621	0.68566	-0.02375	1.59564	0.52655	0.05440	1.57822	0.67354	0.04057	1.48752	0.40186	0.07950	1.18365	0.10936	0.13675	1.33204	-0.05068	0.04993	1.52575	0.07526	-0.07032	1.71610	-0.02623	-0.10932	1.33146	-0.06283 
6636	55.292	-0.06681	1.57481	0.07633	-0.11598	1.36660	0.00408	-0.03846	1.71854	-0.12708	-0.04037	1.56204	0.25531	-0.11894	1.47809	0.06904	-0.04187	1.57618	0.39102	0.09617	1.49325	-0.07310	0.05252	1.80768	0.02786	0.07558	1.82530	-0.07193	-0.10390	1.52429	-0.08488	-0.04462	1.57586	0.68566	-0.02375	1.59533	0.52649	0.05446	1.57786	0.67357	0.04065	1.48732	0.40177	0.07953	1.18362	0.10932	0.13681	1.33202	-0.05070	0.04997	1.52574	0.07529	-0.07026	1.71613	-0.02626	-0.10920	1.33145	-0.06285 
6637	55.300	-0.06681	1.57478	0.07631	-0.11597	1.36660	0.00403	-0.03839	1.71858	-0.12711	-0.04069	1.56271	0.25543	-0.11892	1.47807	0.06898	-0.04184	1.57575	0.39081	0.09619	1.49322	-0.07314	0.05261	1.80764	0.02787	0.07566	1.82527	-0.07192	-0.10388	1.52432	-0.08495	-0.04469	1.57553	0.68561	-0.02370	1.59511	0.52654	0.05446	1.57748	0.67355	0.04067	1.48714	0.40173	0.07953	1.18361	0.10929	0.13681	1.33200	-0.05075	0.05000	1.52571	0.07525	-0.07019	1.71613	-0.02624	-0.10912	1.33141	-0.06292 
6638	55.308	-0.06669	1.57480	0.07630	-0.11613	1.36733	0.00442	-0.03829	1.71857	-0.12712	-0.04057	1.56217	0.25561	-0.11887	1.47807	0.06892	-0.04182	1.57558	0.39083	0.09625	1.49322	-0.07316	0.05269	1.80760	0.02789	0.07576	1.82526	-0.07189	-0.10383	1.52434	-0.08501	-0.04457	1.57518	0.68567	-0.02366	1.59481	0.52657	0.05451	1.57709	0.67355	0.04070	1.48693	0.40165	0.07957	1.18360	0.10929	0.13685	1.33201	-0.05077	0.05002	1.52567	0.07521	-0.07007	1.71615	-0.02620	-0.10907	1.33142	-0.06295 
6639	55.317	-0.06662	1.57481	0.07627	-0.11611	1.36733	0.00435	-0.03822	1.71861	-0.12719	-0.04052	1.56207	0.25559	-0.11886	1.47811	0.06886	-0.04180	1.57538	0.39084	0.09629	1.49321	-0.07321	0.05278	1.80758	0.02791	0.07588	1.82524	-0.07188	-0.10375	1.52431	-0.08503	-0.04461	1.57478	0.68567	-0.02367	1.59455	0.52659	0.05452	1.57675	0.67358	0.04070	1.48670	0.40160	0.07961	1.18358	0.10924	0.13688	1.33200	-0.05082	0.05006	1.52565	0.07520	-0.06999	1.71616	-0.02620	-0.10906	1.33147	-0.06301 
6640	55.325	-0.06660	1.57477	0.07629	-0.11590	1.36661	0.00386	-0.03813	1.71862	-0.12723	-0.04050	1.56195	0.25561	-0.11884	1.47813	0.06882	-0.04178	1.57521	0.39083	0.09631	1.49320	-0.07323	0.05284	1.80758	0.02788	0.07597	1.82521	-0.07188	-0.10375	1.52437	-0.08509	-0.04465	1.57438	0.68564	-0.02367	1.59424	0.52665	0.05447	1.57637	0.67358	0.04076	1.48649	0.40153	0.07965	1.18359	0.10921	0.13688	1.33199	-0.05084	0.05007	1.52562	0.07517	-0.06994	1.71618	-0.02631	-0.10900	1.33144	-0.06308 
6641	55.333	-0.06654	1.57476	0.07625	-0.11585	1.36659	0.00380	-0.03778	1.71852	-0.12702	-0.04044	1.56180	0.25560	-0.11879	1.47811	0.06875	-0.04175	1.57501	0.39086	0.09635	1.49318	-0.07326	0.05289	1.80754	0.02785	0.07604	1.82521	-0.07187	-0.10364	1.52434	-0.08514	-0.04464	1.57399	0.68566	-0.02366	1.59392	0.52663	0.05450	1.57602	0.67364	0.04084	1.48632	0.40149	0.07972	1.18361	0.10919	0.13693	1.33198	-0.05087	0.05016	1.52561	0.07516	-0.06987	1.71620	-0.02632	-0.10902	1.33148	-0.06313 
6642	55.342	-0.06651	1.57475	0.07628	-0.11584	1.36661	0.00376	-0.03763	1.71855	-0.12704	-0.04043	1.56167	0.25561	-0.11877	1.47812	0.06869	-0.04171	1.57481	0.39087	0.09640	1.49319	-0.07330	0.05300	1.80754	0.02785	0.07640	1.82519	-0.07165	-0.10361	1.52435	-0.08517	-0.04467	1.57357	0.68565	-0.02355	1.59312	0.52627	0.05447	1.57567	0.67368	0.04087	1.48609	0.40143	0.07976	1.18362	0.10915	0.13697	1.33198	-0.05093	0.05019	1.52558	0.07514	-0.06983	1.71620	-0.02647	-0.10896	1.33145	-0.06316 
6643	55.350	-0.06642	1.57475	0.07627	-0.11583	1.36663	0.00374	-0.03760	1.71854	-0.12710	-0.04039	1.56153	0.25560	-0.11871	1.47811	0.06868	-0.04168	1.57463	0.39088	0.09643	1.49318	-0.07336	0.05308	1.80751	0.02784	0.07624	1.82513	-0.07195	-0.10354	1.52434	-0.08518	-0.04467	1.57312	0.68570	-0.02357	1.59280	0.52629	0.05446	1.57526	0.67372	0.04092	1.48592	0.40138	0.07978	1.18361	0.10912	0.13700	1.33199	-0.05095	0.05024	1.52556	0.07511	-0.06982	1.71622	-0.02655	-0.10896	1.33148	-0.06323 
6644	55.358	-0.06644	1.57470	0.07625	-0.11577	1.36660	0.00368	-0.03778	1.71871	-0.12742	-0.04037	1.56141	0.25565	-0.11871	1.47810	0.06863	-0.04166	1.57442	0.39092	0.09643	1.49317	-0.07338	0.05320	1.80753	0.02782	0.07637	1.82542	-0.07178	-0.10348	1.52434	-0.08521	-0.04473	1.57265	0.68570	-0.02357	1.59252	0.52632	0.05445	1.57483	0.67379	0.04097	1.48573	0.40129	0.07983	1.18363	0.10907	0.13703	1.33198	-0.05099	0.05032	1.52556	0.07510	-0.06965	1.71625	-0.02647	-0.10890	1.33143	-0.06327 
6645	55.367	-0.06637	1.57467	0.07628	-0.11573	1.36660	0.00362	-0.03745	1.71859	-0.12719	-0.04037	1.56126	0.25566	-0.11867	1.47809	0.06860	-0.04167	1.57421	0.39092	0.09646	1.49317	-0.07343	0.05325	1.80752	0.02776	0.07647	1.82542	-0.07180	-0.10349	1.52435	-0.08525	-0.04473	1.57223	0.68577	-0.02353	1.59220	0.52635	0.05445	1.57438	0.67387	0.04103	1.48553	0.40123	0.07987	1.18360	0.10901	0.13705	1.33197	-0.05103	0.05031	1.52553	0.07510	-0.06965	1.71628	-0.02665	-0.10887	1.33142	-0.06334 
6646	55.375	-0.06635	1.57466	0.07630	-0.11568	1.36659	0.00359	-0.03736	1.71858	-0.12723	-0.04030	1.56114	0.25572	-0.11864	1.47808	0.06855	-0.04166	1.57401	0.39095	0.09650	1.49319	-0.07346	0.05337	1.80751	0.02775	0.07675	1.82541	-0.07159	-0.10339	1.52432	-0.08527	-0.04479	1.57175	0.68576	-0.02353	1.59186	0.52643	0.05459	1.57347	0.67384	0.04111	1.48534	0.40118	0.07990	1.18365	0.10897	0.13710	1.33201	-0.05110	0.05035	1.52551	0.07505	-0.06952	1.71628	-0.02656	-0.10880	1.33143	-0.06340 
6647	55.383	-0.06634	1.57465	0.07626	-0.11567	1.36657	0.00354	-0.03732	1.71860	-0.12726	-0.04035	1.56101	0.25574	-0.11862	1.47807	0.06852	-0.04166	1.57378	0.39099	0.09652	1.49317	-0.07347	0.05341	1.80747	0.02769	0.07664	1.82540	-0.07186	-0.10333	1.52431	-0.08530	-0.04477	1.57127	0.68582	-0.02359	1.59156	0.52646	0.05419	1.57318	0.67370	0.04116	1.48512	0.40109	0.07998	1.18365	0.10890	0.13711	1.33201	-0.05114	0.05035	1.52547	0.07506	-0.06954	1.71630	-0.02672	-0.10881	1.33142	-0.06344 
6648	55.392	-0.06629	1.57464	0.07629	-0.11567	1.36656	0.00350	-0.03731	1.71864	-0.12728	-0.04033	1.56088	0.25574	-0.11857	1.47805	0.06848	-0.04168	1.57356	0.39101	0.09655	1.49318	-0.07352	0.05351	1.80748	0.02766	0.07670	1.82538	-0.07191	-0.10340	1.52434	-0.08537	-0.04481	1.57076	0.68581	-0.02362	1.59121	0.52652	0.05429	1.57271	0.67379	0.04118	1.48488	0.40102	0.08004	1.18366	0.10888	0.13716	1.33199	-0.05120	0.05038	1.52545	0.07507	-0.06947	1.71633	-0.02672	-0.10876	1.33141	-0.06349 
6649	55.400	-0.06630	1.57457	0.07629	-0.11563	1.36657	0.00347	-0.03723	1.71865	-0.12730	-0.04032	1.56074	0.25575	-0.11857	1.47803	0.06844	-0.04169	1.57331	0.39103	0.09657	1.49317	-0.07355	0.05360	1.80746	0.02763	0.07699	1.82537	-0.07172	-0.10334	1.52436	-0.08538	-0.04483	1.57034	0.68580	-0.02373	1.59125	0.52682	0.05416	1.57229	0.67379	0.03606	1.48292	0.40156	0.08015	1.18372	0.10885	0.13717	1.33199	-0.05123	0.05041	1.52541	0.07503	-0.06935	1.71632	-0.02665	-0.10877	1.33145	-0.06354 
6650	55.408	-0.06622	1.57460	0.07628	-0.11559	1.36655	0.00343	-0.03752	1.71875	-0.12762	-0.04032	1.56061	0.25580	-0.11854	1.47803	0.06841	-0.04172	1.57308	0.39107	0.09658	1.49317	-0.07359	0.05366	1.80748	0.02758	0.07683	1.82535	-0.07201	-0.10330	1.52439	-0.08541	-0.04488	1.56990	0.68586	-0.02383	1.59090	0.52687	0.05456	1.57204	0.67415	0.04128	1.48449	0.40094	0.07904	1.18305	0.10901	0.13720	1.33197	-0.05127	0.05047	1.52542	0.07507	-0.06937	1.71634	-0.02677	-0.10864	1.33140	-0.06356 
6651	55.417	-0.06618	1.57459	0.07631	-0.11557	1.36656	0.00341	-0.03721	1.71861	-0.12734	-0.04030	1.56049	0.25581	-0.11849	1.47802	0.06840	-0.04172	1.57288	0.39114	0.09660	1.49314	-0.07365	0.05375	1.80747	0.02752	0.07710	1.82534	-0.07181	-0.10324	1.52435	-0.08541	-0.04491	1.56948	0.68590	-0.02385	1.59058	0.52693	0.05451	1.57165	0.67424	0.04118	1.48416	0.40095	0.07904	1.18301	0.10893	0.13720	1.33198	-0.05132	0.05050	1.52537	0.07505	-0.06904	1.71626	-0.02633	-0.10867	1.33141	-0.06361 
6652	55.425	-0.06613	1.57457	0.07632	-0.11553	1.36654	0.00338	-0.03717	1.71864	-0.12735	-0.03993	1.55967	0.25576	-0.11846	1.47800	0.06839	-0.04170	1.57266	0.39118	0.09663	1.49316	-0.07365	0.05379	1.80747	0.02750	0.07697	1.82536	-0.07211	-0.10326	1.52437	-0.08544	-0.04497	1.56905	0.68592	-0.02387	1.59029	0.52697	0.05404	1.57100	0.67397	0.04152	1.48418	0.40083	0.07914	1.18304	0.10890	0.13724	1.33196	-0.05136	0.05051	1.52534	0.07504	-0.06924	1.71636	-0.02674	-0.10869	1.33140	-0.06367 
6653	55.433	-0.06610	1.57453	0.07633	-0.11549	1.36654	0.00332	-0.03743	1.71873	-0.12764	-0.04031	1.55986	0.25616	-0.11843	1.47801	0.06835	-0.04179	1.57235	0.39112	0.09664	1.49315	-0.07366	0.05390	1.80744	0.02749	0.07719	1.82535	-0.07187	-0.10324	1.52437	-0.08546	-0.04501	1.56866	0.68591	-0.02382	1.59002	0.52707	0.05402	1.57055	0.67408	0.03491	1.48174	0.40114	0.07922	1.18305	0.10884	0.13725	1.33196	-0.05143	0.05058	1.52532	0.07504	-0.06925	1.71634	-0.02680	-0.10865	1.33141	-0.06369 
